<svg width="90" height="72" viewBox="0 0 90 72" fill="none" xmlns="http://www.w3.org/2000/svg">
<path d="M53.1785 68.4812C53.7475 68.721 67.2454 74.2811 84.8645 68.2495C85.7994 67.9284 86.5878 67.2781 87.0796 66.4165C87.6283 65.4573 89.4167 61.4132 89.4167 49.6793C89.4167 38.5307 87.7665 34.702 86.7829 33.4136C86.4984 33.0397 86.153 32.7186 85.7587 32.4666C84.9336 31.9342 80.2027 29.2801 67.8225 29.2801C62.7827 29.2801 59.0434 29.6906 56.304 30.2271C56.4178 27.9917 56.5967 25.74 56.8446 23.4884C57.7266 15.3799 63.7947 9.05163 71.5984 8.0965C73.8256 7.82824 75.4108 5.8001 75.1425 3.57282C74.8905 1.51217 73.1388 0.000215046 71.1147 0.000215223C70.948 0.000215238 70.7814 0.00834056 70.6148 0.0327317C59.0434 1.44714 50.0571 10.7302 48.7646 22.6104C48.2769 27.065 48.0289 31.5277 48.0289 35.8848C48.0289 52.7114 50.6789 65.0915 50.7927 65.6077C51.0732 66.8961 51.9633 67.965 53.1785 68.4812Z" fill="#D72229"/>
<path d="M2.76379 65.6036C3.04424 66.892 3.93434 67.965 5.14959 68.4812C5.71454 68.721 19.2165 74.2811 36.8356 68.2495C37.7704 67.9284 38.5589 67.2781 39.0507 66.4165C39.5994 65.4573 41.3877 61.4132 41.3877 49.6793C41.3877 38.5307 39.7376 34.702 38.754 33.4136C38.4695 33.0397 38.124 32.7186 37.7298 32.4666C36.9047 31.9342 32.1738 29.2801 19.7936 29.2801C14.7538 29.2801 11.0145 29.6906 8.27511 30.2271C8.38891 27.9917 8.56774 25.74 8.81161 23.4884C9.69764 15.3799 15.7658 9.05163 23.5694 8.0965C25.7967 7.82824 27.3818 5.8001 27.1136 3.57282C26.8616 1.51217 25.1098 0.000215046 23.0858 0.000215223C22.9191 0.000215238 22.7525 0.00834056 22.5858 0.0327317C11.0145 1.44714 2.02813 10.7302 0.731592 22.6104C0.243865 27.0732 2.75693e-06 31.5359 3.13713e-06 35.8848C4.60815e-06 52.7114 2.64999 65.0874 2.76379 65.6036Z" fill="#D72229"/>
</svg>
